<svg xmlns="http://www.w3.org/2000/svg" viewBox="0 0 131.04 128.72"><defs><style>.cls-1{fill:#50402d;}.cls-2{fill:#3b2a23;}.cls-3{fill:none;}.cls-4{fill:#322121;}.cls-5{fill:#514031;}.cls-6{fill:#352522;}.cls-7{fill:#332320;}.cls-8{fill:#372523;}.cls-9{fill:#362725;}.cls-10{fill:#352521;}.cls-11{fill:#37221f;}.cls-12{fill:#4a3b33;}.cls-13{fill:#40332e;}.cls-14{fill:#3c2d2a;}.cls-15{fill:#43342c;}.cls-16{fill:#42362c;}.cls-17{fill:#362b21;}.cls-18{fill:#40302e;}.cls-19{fill:#463733;}.cls-20{fill:#564946;}.cls-21{fill:#53443c;}.cls-22{fill:#483934;}.cls-23{fill:#41332d;}.cls-24{fill:#2e221d;}.cls-25{fill:#301d28;}.cls-26{fill:#50402f;}.cls-27{fill:#39231d;}.cls-28{fill:#382621;}.cls-29{fill:#50412e;}.cls-30{fill:#3b2a20;}.cls-31{fill:#504033;}.cls-32{fill:#503e2e;}.cls-33{fill:#3b2925;}.cls-34{fill:#4a392d;}.cls-35{fill:#43312a;}.cls-36{fill:#3d2824;}.cls-37{fill:#50422d;}.cls-38{fill:#352027;}.cls-39{fill:#a93a18;}.cls-40{fill:#442921;}.cls-41{fill:#a13617;}.cls-42{fill:#4d2516;}.cls-43{fill:#4c2a1a;}.cls-44{fill:#39251e;}.cls-45{fill:#3b2521;}.cls-46{fill:#4d412c;}.cls-47{fill:#301f23;}.cls-48{fill:#44291f;}.cls-49{fill:#a73717;}.cls-50{fill:#a53a17;}.cls-51{fill:#ad3818;}.cls-52{fill:#a33b17;}.cls-53{fill:#a23a17;}.cls-54{fill:#ae3618;}.cls-55{fill:#fff;}</style></defs><g id="Calque_2" data-name="Calque 2"><g id="Calque_1-2" data-name="Calque 1"><path class="cls-1" d="M51.35,65.08c2.08-.12,3.45-1.87,5.39-2.36,0,.7-.5,1-1,1.27l-5.09,2.79c-.52.29-1,.61-1.52-.06C49.51,65.69,50.62,65.63,51.35,65.08Z"/><path class="cls-2" d="M52.53,50.2c.67.14.88.63,1,1.61l-1-1.61Z"/><path class="cls-3" d="M98.88,98.79l-54.7,29.93q-21.88-40-43.79-80c-.64-1.17-.54-1.53.64-2.16Q43.29,23.56,85.47.39C86.64-.25,87-.15,87.64,1q21.44,39.33,43,78.6c.64,1.17.55,1.54-.64,2.17-5.85,3.1-11.64,6.33-17.45,9.51a.4.4,0,0,1-.22-.51,5,5,0,0,1,2.59-2.25c4.33-2.3,7.54-5.91,10.82-9.41.91-1,1.74-2.28.93-3.72s-2.45-1.61-4-1.44c-2,.24-4,.45-6,.87a11.87,11.87,0,0,0-3.42.87,7.15,7.15,0,0,0-2,.82c-1.69.44-3.26,1.39-5.1,1.26-2-1.86-2.19-4.63-3.54-6.82-.63-2.4-2.27-4.31-3.2-6.56a24.13,24.13,0,0,0-1.36-3.48c-1.36-3.44-2.77-6.86-4.3-10.23a10.18,10.18,0,0,0-1.27-2.93,6.09,6.09,0,0,1-.46-1.16,5.83,5.83,0,0,0-.8-1.95A8.67,8.67,0,0,1,90.6,43a6.1,6.1,0,0,0-.82-2c-.73-1.4-1-3-1.87-4.33a3.16,3.16,0,0,1-.2-.59,12.49,12.49,0,0,0-1.16-2.77,4.23,4.23,0,0,1-.19-.57,12.94,12.94,0,0,0-1.14-2.68c-.07-.18-.13-.37-.18-.55A14.64,14.64,0,0,0,84,26.87c-.07-.19-.12-.38-.17-.57a21.85,21.85,0,0,0-1.55-3.19,3.93,3.93,0,0,1-.31-.87,13.52,13.52,0,0,0-1.25-2.8,31.6,31.6,0,0,0-1.59-4c-.72-1.92-1.41-2.31-3.43-1.84a94.88,94.88,0,0,0-11.89,3.65,3.35,3.35,0,0,1-.61.2,18.59,18.59,0,0,0-2.7,1.09c-4.09,1.42-8,3.24-12,5C46,24.61,43.55,25.75,41,26.73c-4,1.52-7.46,3.83-11,6-2.64,1.61-5.51,2.86-7.95,4.82-.91.73-2,1.3-2.31,2.52a3.35,3.35,0,0,0,.59,1.62c3.33,6.87,7,13.59,10.63,20.28a7.8,7.8,0,0,1,.48,1.06,13.86,13.86,0,0,0,1.75,3.81c.78,1.45,1.58,2.89,2.37,4.34l1.2,2.18c3.1,6.36,6.18,12.73,9.44,19a3.78,3.78,0,0,1,.23.67c.78,2.52,2.54,4.57,3.47,7,.83,2.93.79,2.87-1.83,4.52a52.75,52.75,0,0,0-8.49,6.69,4.74,4.74,0,0,0-1.7,3.15c.14,1.36,1.25,1.53,2.25,1.72a24.76,24.76,0,0,0,6.77,0,87.19,87.19,0,0,0,23.5-5.53c1.93-.73,4-1.2,5.85-2.06,2.79-1.33,5.48-2.87,8.36-4A92.74,92.74,0,0,0,97.5,98.54a1.87,1.87,0,0,1,.93-.21A.45.45,0,0,1,98.88,98.79Z"/><path class="cls-4" d="M116.72,74.33a26.8,26.8,0,0,1,7.5-.9c3.08.19,4.38,2.42,2.65,4.94A37.7,37.7,0,0,1,117,87.83,39.31,39.31,0,0,0,112.42,91a24.67,24.67,0,0,1-3.36,2l-4.32,2.37c-1.14.74-2.5,1.11-3.46,2.12l-.69.37c-.74-.11-1.17.66-1.88.66-1.31.69-2.65,1.32-3.93,2.08-5.8,3.41-12.43,5-18.2,8.54-.11.07-.34,0-.52-.07-.5-.19-1.21.7-1.5-.14s.6-.85,1.06-1.12c1.11-.64,2.27-1.2,3.35-1.9,5.54-2.64,11-5.35,16.33-8.47A2.43,2.43,0,0,1,97.49,97c.32.93-.52,1-1,1.33-1.09.66-2.23,1.24-3.35,1.85,1.52-.81,3-1.67,4.56-2.47a2.67,2.67,0,0,1,1.23-.31c1,0-.09-.52.18-.7a2.26,2.26,0,0,1,.61-1c2.47-1.28,4.8-2.82,7.24-4.15a63.82,63.82,0,0,0,16.72-12.86c.66-.72,1.45-1.48,1-2.55S123,75,122,75a21.57,21.57,0,0,0-3.66.47,3.08,3.08,0,0,1-2.63-.19C115.56,74.48,116.2,74.47,116.72,74.33Z"/><path class="cls-5" d="M94.24,50.44a79.8,79.8,0,0,1,4.37,10.41,4.36,4.36,0,0,1-1.23-2.13c.64,1.83,1.66,3.51,2.28,5.35.7,1.26,1.1,2.66,1.89,3.88a3.36,3.36,0,0,1,.37,3c-.5,1.32-1.72,1.86-2.75,2.64a67.81,67.81,0,0,1-8.8,5.65c-3.59,1.92-7.08,4-10.73,5.85-3.94,2-8,3.63-12.11,5.19-3.08,1.17-6.2,2.21-9.31,3.3-1.56.44-3.08,1-4.67,1.32-1.91.44-3.79,1.19-5.8.46-1.68-2.54-2.9-5.32-4.33-8,.65-.64.9-.67,1.36.12.62,1.05,1.1,2.19,1.72,3.25a13.67,13.67,0,0,0,1.19,2c.17.2.32-.22.15,0,0,0-.06,0-.15-.09a3.27,3.27,0,0,1-.76-1.12c-1.51-3-3.13-6-4.79-9a3.49,3.49,0,0,0-1.28-1.12.92.92,0,0,1-.29-.48,6.12,6.12,0,0,0-.85-3.78c-.36-.53-.56-.06-.38-.25s.13-.07.19,0A1.62,1.62,0,0,1,40,78.33c-1.09-.2-1.35-1-1.65-1.75S38,75,37.11,74.72c-.32-.52-.37-1.15-.72-1.66-.54-1-1.08-2-1.61-2.94C30.14,61,25.38,52,20.91,42.79c-.39-.81-1.43-1.46-.79-2.6a14.27,14.27,0,0,1,5.4-4.92c5.13-2.86,10.05-6.13,15.46-8.45,3.68-1.58,7.23-3.48,11.1-4.58a1.35,1.35,0,0,1,.74.14c.36.2,1,.09,1,.73a1.12,1.12,0,0,1-1.1.93,17.37,17.37,0,0,0-4.42,1.35c-.08,0,0,.06.12,0,.76-.27,1.45-.93,2.32-.28.13.59.19,1.19.3,1.78-.09,1.42-1.39,1.62-2.26,2.25C44.93,30.88,41,32.42,37.14,34a9.06,9.06,0,0,0-2.35.9,6.92,6.92,0,0,1-1.73.41c-1.7.2-2.9,1.59-4.58,1.84a6.47,6.47,0,0,0,2.22-.6,4.17,4.17,0,0,1,.57-.18c1.05-.21,1.87-1,2.91-1.19,5.17-1.6,9.94-4.19,15-6.19a18.63,18.63,0,0,1,1.93-.87,24.69,24.69,0,0,0,5-2.51c3.83-2.05,7.63-4.16,11.44-6.25.9-.46,1.77-1,2.72-1.37,2-.5,2.62-2.54,4.12-3.59,3.15-1.09,3.85-.68,5.43,3.18a13.54,13.54,0,0,0,1.63,3.54c.33.55.47,1.18.75,1.74A7.45,7.45,0,0,0,83,24.81a7.89,7.89,0,0,1,.57,1.3c.64,1.21.84,2.67,2,3.61.47,1,1.27,1.8,1.25,3-.49,0-.69-.4-.9-.73.15.32.33.59.47.88A16.67,16.67,0,0,1,87.45,35c2,4.75,3.71,9.65,6.22,14.19A2.23,2.23,0,0,1,94.24,50.44Z"/><path class="cls-6" d="M52.65,22.4a151.15,151.15,0,0,0-16.53,7.4A86.58,86.58,0,0,0,22.69,38a15.61,15.61,0,0,0-2,2.34A3,3,0,0,1,19,39.87c.94-2.47,3.37-3.33,5.3-4.56a136,136,0,0,1,13.28-7.66c5.52-2.69,11.26-4.94,16.93-7.31a30.24,30.24,0,0,1,6-2.24c1,0,1.65-1,2.64-1a.2.2,0,0,1,.29-.12c.51.07,1,.19.61.87-1,1.29-2.57,1.48-3.94,2C57.64,20.69,55.43,22.38,52.65,22.4Z"/><path class="cls-7" d="M79.12,106.49,74.7,108.9l1.36.16c-2.47,1.37-5.23,2-7.87,2.87A69.31,69.31,0,0,1,59,114.84c-6.33,1.2-12.66,2.51-19.16,1.85-1.13-.12-2.55-.25-2.53-2,.3-1,.81-1.45,1.54-.42.62.87,1.38.8,2.23.68,10.09.19,19.68-2.2,29.06-5.67a1.47,1.47,0,0,1,.55,0c1.35.62,2.12-.22,2.86-1.14,1.32-1,3-1.31,4.42-2C78.34,106,78.85,105.93,79.12,106.49Z"/><path class="cls-8" d="M40.9,115.41c-.94.09-1.93.61-2.41-.91-.34-1.09-.81,0-1.2.19-.14-1.91,1.07-3.17,2.31-4.25,2.77-2.41,5.5-4.94,8.84-6.55,1.78-.85,1.86-1.93,1.11-3.44-.24-1.55-1.35-2.68-1.95-4.06-.29-.64-.66-1.27.58-1,1.68-.6,3.56-.23,5.2-1.05a.37.37,0,0,1,.2.5A3.11,3.11,0,0,1,52.19,96a5.09,5.09,0,0,1-1.06.42,2.42,2.42,0,0,0-1.53.74c-.14.84.5,1.37.79,2a21.73,21.73,0,0,1,1.14,2.26,4.44,4.44,0,0,1,.15.52c.34.93.32,2.18,1.86,2a7.48,7.48,0,0,1,2.45.09c.79.33,1.89-.7,2.49.54a1.56,1.56,0,0,1-.6.67,13.73,13.73,0,0,1-4.07,1.1c-.51.09-1.14.23-1.5-.1-2.49-2.23-4.1.18-6,1.1-.44.22-.77.68-1.2,1a11.86,11.86,0,0,0-2.2,1.43c-.51.47-1,1-1.54,1.42C39.12,113.17,39.11,113.3,40.9,115.41Z"/><path class="cls-9" d="M64.15,17.44l-.71-.5a73.87,73.87,0,0,1,13.11-4,2.15,2.15,0,0,1,2.84,1.61c.5,1.6,1.16,3.15,1.74,4.72.06,1.17,1.12,1.93,1.28,3.06l.28.53c.14,1.36,1.25,2.32,1.52,3.63h0a.69.69,0,0,1-.34.41c-.29,0-.55,0-.55-.37l-.74-1.38c.13-.73-.71-1.16-.6-1.89L81,21.51c-.12-1.36-1.39-2.24-1.54-3.6l-.72-1.34C77.35,14,77.26,13.92,74.34,15c-.63-.14-.82.49-1.25.71-2.62.6-5.23,1.27-7.8,2.08C64.88,17.87,64.39,18,64.15,17.44Z"/><path class="cls-10" d="M19,39.87c.69-.37,1.16.11,1.66.44-.25.21-.61.55-.34.79,1.29,1.13,1.33,2.88,2.17,4.24,3.18,5.1,5.53,10.64,8.22,16,1.47,2.93,3,5.85,4.47,8.78-.32.43.8,1-.08,1.37L32.71,67c-.3-1.35-1.38-2.33-1.69-3.68C26.75,56,23.1,48.28,19.09,40.77A.8.8,0,0,1,19,39.87Z"/><path class="cls-11" d="M101.69,70.62a4.63,4.63,0,0,0-.44-2.43c1.5.27,1.39,1.72,2,2.67l3.25,6.76L107,78a2.07,2.07,0,0,1,.45,2.64c-.43.57-1.12.83-1.59,1.35a3.79,3.79,0,0,1-.42.38,8.93,8.93,0,0,0-1.77,1.27l-.71.85a3.79,3.79,0,0,1-.42.38c-.83.52-1.49,1.25-2.32,1.76a2.29,2.29,0,0,1-2,.36.69.69,0,0,1-.35-.48,1.23,1.23,0,0,1,.26-.54c.5-.49,1.14-.8,1.61-1.33.67-.58,1.47-1,2.11-1.59s1.53-.84,1.94-1.68a3,3,0,0,0,.42-3.71c-.84-1.72-1-3.75-2.3-5.26C101.43,71.83,101.64,71.22,101.69,70.62Z"/><path class="cls-12" d="M48.18,95.43c-1.17.22-.35.79-.2,1.23.44,1.29,1.76,2.23,1.57,3.79-1-2.52-2.94-4.64-3.55-7.37a.59.59,0,0,1,.3.21,5.87,5.87,0,0,1,.37.59c-.08-.15-.16-.3-.25-.45a.69.69,0,0,0-.42-.35c-3.47-6.4-6.57-13-9.75-19.53a.49.49,0,0,1,.65-.36l.41,1.56c1.21,2,3,3.68,3.37,6.15l.18.34c1.51,1.59,2.91,3.23,2.66,5.66Z"/><path class="cls-13" d="M93.48,49.31c-1.76-1.29-1.79-3.5-2.67-5.24-1.34-2.69-2.25-5.6-3.69-8.27-.1-.19,0-.49,0-.74.74,0,.54,1,1.1,1.18a23.9,23.9,0,0,1,2.05,4.66c0,.75.7,1.24.74,2l.77,1.64c0,.73.71,1.22.75,1.94l.45.95C92.79,48.13,93.8,48.55,93.48,49.31Z"/><path class="cls-14" d="M106.68,78.11l-.22-.49c1.47-1,3.27-.93,4.84-1.61.77.1,1.24-.69,2-.69a9.4,9.4,0,0,1,3.44-1c-.35.28-.87.42-.91,1-.41,1-1.42,1.08-2.23,1.36C111.35,77.44,109.13,78.35,106.68,78.11Z"/><path class="cls-15" d="M103.21,70.86c-.77-.8-.79-2.16-2-2.67-.92-1.16-1-2.68-1.72-4,0-.23.15-.28.36-.19C101.05,66.29,102.54,68.38,103.21,70.86Z"/><path class="cls-16" d="M99.89,64.05l-.36.19c-1.12-1.65-1.45-3.63-2.19-5.47l1.27,2.08A7.91,7.91,0,0,1,99.89,64.05Z"/><path class="cls-17" d="M88.21,36.24c-.7-.08-.79-.74-1.1-1.18l-1.3-2.39c.36-.43-.85-1,.12-1.37l.84,1.39a.24.24,0,0,1,.09.29c.08,1.15,1.1,1.9,1.27,3A.16.16,0,0,1,88.21,36.24Z"/><path class="cls-18" d="M83.31,26.49l.55.15a7.13,7.13,0,0,1,1.58,2.81.2.2,0,0,1,.08.27C83.58,29.46,84.07,27.55,83.31,26.49Z"/><path class="cls-19" d="M36.9,73.19l-.65.36-1.12-2.06c0-.46.06-.92.08-1.37C35.78,71.14,36.34,72.17,36.9,73.19Z"/><path class="cls-20" d="M84.21,26.46a5.79,5.79,0,0,1-1.52-3.63A13.31,13.31,0,0,1,84.21,26.46Z"/><path class="cls-19" d="M31,63.36c.66,1.18,1.69,2.2,1.69,3.68Z"/><path class="cls-21" d="M93.48,49.31c-.12-.65-.83-1.14-.51-1.91a11.2,11.2,0,0,1,1.27,3Z"/><path class="cls-18" d="M82.41,22.3c-.49-1-1.46-1.79-1.28-3.06A8.35,8.35,0,0,1,82.41,22.3Z"/><path class="cls-20" d="M85.44,29.45l-1.58-2.81.34-.19C84.64,27.44,85.42,28.29,85.44,29.45Z"/><path class="cls-22" d="M88.13,36c-.47-1-1.43-1.76-1.27-3C87.34,34,88.17,34.79,88.13,36Z"/><path class="cls-9" d="M63.15,17.06c-.87.36-1.53,1.27-2.64,1A5.53,5.53,0,0,1,63.15,17.06Z"/><path class="cls-23" d="M113.28,75.32c-.63.31-1.14,1-2,.69A2.81,2.81,0,0,1,113.28,75.32Z"/><path class="cls-5" d="M91,42.87c-.35-.61-1-1.14-.74-2A4.5,4.5,0,0,1,91,42.87Z"/><path class="cls-21" d="M92.52,46.45c-.38-.59-1-1.11-.75-1.94Z"/><path class="cls-5" d="M106.68,78.11c3-.92,6.2-1.49,9.13-2.79,1.89-.29,3.79-.55,5.68-.86a5,5,0,0,1,2.48.23c1.65.57,2.2,1.76,1.08,3.11a51.54,51.54,0,0,1-8.4,8.17c-4.37,3.31-9.3,5.74-13.83,8.8-.95.64-2.22.64-3.16,1.38-.58.57-1,1.36-2,1.11-2.77.57-5,2.29-7.34,3.67a62.33,62.33,0,0,1-6.3,3.22c-1.64.74-3.24,1.54-4.85,2.34a25,25,0,0,0-5.85,2.31,1.49,1.49,0,0,1-.51-.06,2.25,2.25,0,0,0-2.26.7c-3.47,2.14-7.48,2.63-11.3,3.72a58.34,58.34,0,0,1-18.3,2.25c-2.51-1.1-2.68-2-.66-3.9.74-.69,1.57-1.28,2.36-1.92a39.91,39.91,0,0,0,6.94-3.34c-1,.54-2,1.15-3.06,1.65-.52.25-1.09.9-1.66,0,1.43-1.54,3.49-2.13,5.09-3.42.35-.28.71-.5.94,0,1.17,2.28,3,1.37,4.73,1.06a19.09,19.09,0,0,0,2.19-.68c2.93-1.39,6.11-2.06,9.09-3.28.38-.15.8-.2,1.19-.32a17.83,17.83,0,0,1,2.68-.77A16.75,16.75,0,0,0,74,99a33,33,0,0,0,8.09-3.56c3-1.72,6.34-2.81,9.28-4.66,1.68-.89,3.34-1.82,5-2.73,1.07-.91,2.72-.64,3.65-1.82.92-.52,1.51-1.49,2.56-1.83,1.11-.09,1.86-1,2.88-1.32-.88.3-1.57,1-2.55,1.13a.82.82,0,0,1,.5-.72c.4-.77,1.48-.68,1.87-1.46l.33-.19c.29-.68,1.25-.58,1.52-1.28C107.81,79.57,107,78.88,106.68,78.11Z"/><path class="cls-24" d="M97.61,97.26l2-1.11a.8.8,0,0,1-.5.71c-.07.49-.47.69-.84.9l-6.95,3.81-.38-.69Z"/><path class="cls-25" d="M98.32,97.76c0-.53.47-.68.84-.9.18.21.82.16.63.43A1.17,1.17,0,0,1,98.32,97.76Z"/><path class="cls-26" d="M64.15,17.44a35.09,35.09,0,0,0,4-1.07c1.62-.65,3.35-.69,5-1.19,0,1.74-1.51,2.06-2.6,2.77-.94.49-1.87,1-2.8,1.52L57,25.32c-2.36.92-4.49,2.31-6.82,3.28-.54.23-1.1.83-1.69,0,.67-.66,2.2-.46,2-2a4.11,4.11,0,0,1,2.52-2c2.6-1.15,4.93-2.79,7.43-4.11-2.51,1.32-4.83,3-7.47,4.07-.76.31-1.43.91-2.35.64-1.39-.44-2.46.77-3.86.59,2-.26,3.16-2.23,5.23-2.17a1.5,1.5,0,0,0,1.38-.47c.15-.22-1-.08-.76-.81Z"/><path class="cls-27" d="M101.69,70.62l.39,1.53c-.38,1.14-1.41,1.65-2.27,2.31a60.89,60.89,0,0,1-7.43,4.87c-6.32,3.52-12.46,7.39-19.33,9.84a18.65,18.65,0,0,0-1.72.89c-3.53,1.2-7,2.57-10.54,3.73a7,7,0,0,1-2.07.46c-.61-.08-1.32.2-1.77-.49a.63.63,0,0,1,.75-.42c3.56-1.33,7.13-2.6,10.66-4,3.29-1.3,6.63-2.53,9.77-4.13,5.24-2.66,10.43-5.42,15.44-8.48C96.44,75,99.54,73.39,101.69,70.62Z"/><path class="cls-28" d="M48.51,28.65c1.17.22,1.91-.67,2.8-1.11A28.82,28.82,0,0,1,56.75,25c.17.24.18.53-.07.66-1.85,1-3.54,2.23-5.56,2.87C45.9,31,40.7,33.5,35.26,35.44a7.15,7.15,0,0,1-1.14.2c-1.12,0-1.8,1.13-2.92,1.15l-.17.1-.17.09c-.45-.23-.93.62-1.43-.11A9.45,9.45,0,0,1,32.88,35l1.55-.41c.88.1,1.38-.86,2.24-.79C40.45,31.68,44.71,30.69,48.51,28.65Z"/><path class="cls-29" d="M43.52,86.9c-.28-2.17-1.83-3.75-2.66-5.66a1.24,1.24,0,0,1,1.73,1,5.64,5.64,0,0,0,2,3.23c1.39,1.29.9,3.32,2.06,4.7.69.81.89,2,2.06,2.47.4.15.79.66.45,1.09s-.81,0-1.19-.21c-.71-.42-.92-1.21-1.36-1.84C45.51,90.14,45.13,88.13,43.52,86.9Z"/><path class="cls-30" d="M51.12,28.56C53,27.3,55.25,26.81,56.75,25q5.47-3,10.94-6a.51.51,0,0,1,.37.68q-7.48,4.1-15,8.19C52.47,28.24,51.93,28.83,51.12,28.56Z"/><path class="cls-31" d="M50.66,25.26c3.5-2,7.41-3.22,10.91-5.3-3.71,2.19-7.12,4.86-11,6.7C50.26,26.16,50,25.67,50.66,25.26Z"/><path class="cls-32" d="M40.68,80.9q-1.7-3.08-3.37-6.15c.84-.91,1,.09,1.09.49A7.3,7.3,0,0,0,39.58,78c.33-.67-.46-1-.28-1.58.08,0,.24,0,.24.07C39.74,78,42.37,78.9,40.68,80.9Z"/><path class="cls-33" d="M32.88,35c-.75,1-2.27.69-3,1.81l1,.18c-.95.36-1.9.73-2.86,1.07-.3.1-.68.12-.81-.25a.6.6,0,0,1,.42-.77C29.47,36.6,30.94,35.18,32.88,35Z"/><path class="cls-34" d="M70.43,17.55a5,5,0,0,0,2.7-2.37c.38-.19.75-.48,1.21-.22-1.11,1.17-1.74,2.85-3.54,3.27A.51.51,0,0,1,70.43,17.55Z"/><path class="cls-26" d="M50,26.34l-2.81,1.93C47.39,26.16,47.65,26,50,26.34Z"/><path class="cls-35" d="M70.43,17.55l.37.68-2.74,1.5-.37-.68Z"/><path class="cls-36" d="M57.7,93.34l-.68.38a2.45,2.45,0,0,1-3.46,1l-.18-.34Z"/><path class="cls-18" d="M79.5,17.91c.48,1.22,1.64,2.14,1.54,3.6C80.57,20.3,79.41,19.37,79.5,17.91Z"/><path class="cls-22" d="M85.93,31.3l-.12,1.37a10.17,10.17,0,0,1-.55-1c-.1-.28-.66-.65,0-.89C85.55,30.62,85.76,31,85.93,31.3Z"/><path class="cls-33" d="M31.2,36.79c1-.35,1.71-1.38,2.92-1.15C33.13,36,32.41,37,31.2,36.79Z"/><path class="cls-33" d="M36.67,33.79c-.74.27-1.3,1.08-2.24.79C35.18,34.31,35.74,33.51,36.67,33.79Z"/><path class="cls-18" d="M82,23.22c.24.62.9,1.1.6,1.89C82.33,24.5,81.67,24,82,23.22Z"/><path class="cls-37" d="M70.5,109.44c.34-1.25,1-1.51,2.58-1a2.4,2.4,0,0,1-2.39,1.29Z"/><path class="cls-38" d="M70.69,109.76l2.39-1.29.19.33C72.89,109.88,72,110.22,70.69,109.76Z"/><path class="cls-39" d="M92.36,78.78c2.25-1.51,4.51-3,6.76-4.53,1-.67,2-1.4,3-2.1,1.06.5,1.24,1.58,1.6,2.51a13.52,13.52,0,0,0,.95,2.73,3,3,0,0,1-.47,4.26c-.45.9-1.68.79-2.15,1.66s-1.54,1.06-2.24,1.68c-.32.67-1.24.6-1.57,1.27l-.16.07-.14.11a2,2,0,0,1-1,1.14c-3.29,1.76-6.45,3.76-9.85,5.33-3.14.92-5.7,3-8.65,4.32a3.25,3.25,0,0,1-.6.2c-1.13.13-2,.89-3,1.22a3.65,3.65,0,0,1-.56.18c-1.24.3-2.21,1.16-3.4,1.56a4,4,0,0,1-.57.16,30.38,30.38,0,0,0-3.83,1.32,12.9,12.9,0,0,0-2.2.73,9.08,9.08,0,0,0-2.41.89,1.8,1.8,0,0,1-.57.1c-1.73.68-3.63.42-5.39.94a4.8,4.8,0,0,0-2.26-.06,1.36,1.36,0,0,1-1.1-.48c-.85-2.11-1.82-4.17-2.7-6.27-.43-1,.16-1.39,1.06-1.52l1-.54c2.17-.7,4.37-1.26,6.58-1.81,3.58-.8,6.9-2.36,10.38-3.48l2-.66c.43.26.18.7.31,1.18.84-2.52,3.5-2.12,5.08-3.41.69-.57.43,1.1,1.18.55a2.35,2.35,0,0,1,.45-.22,2.36,2.36,0,0,0,1.79-1.28,5.93,5.93,0,0,1,1.25-1.2c3.67-1.91,7.17-4.13,11-5.82A.78.78,0,0,0,92.36,78.78Z"/><path class="cls-40" d="M64,102.31a4.24,4.24,0,0,1,2.2-.75c.32.24.91-.45,1.07.32a41,41,0,0,1-9.49,3l.69-.39c.77-.91,2-.69,2.93-1.17h0C62.4,103.37,63,102.32,64,102.31Z"/><path class="cls-41" d="M50.84,96.2c-1.57.66-.13,1.28-.1,2,.11,2.22,1.84,3.74,2.12,5.82-1.31,0-1.13-1.12-1.45-1.87h0c-.16-1.13-1-1.95-1.39-2.94-.28-.82-1.13-1.41-1-2.41C49.64,96.6,50.09,95.94,50.84,96.2Z"/><path class="cls-42" d="M58.43,93.85a28.93,28.93,0,0,1-6.58,1.81l1.71-.94a6.82,6.82,0,0,0,3.46-1Z"/><path class="cls-43" d="M61.39,103.3c-.85.72-2,.68-2.93,1.17-.88-.33-1.74.47-2.62.06A24,24,0,0,1,61.39,103.3Z"/><path class="cls-36" d="M51.41,102.12c.54.58.49,1.62,1.45,1.87l.72.48C51.61,104.84,51.56,103.44,51.41,102.12Z"/><path class="cls-36" d="M50.21,99.22c.44,1,1.31,1.73,1.2,2.91-.5-.92-1-1.83-1.51-2.74C49.92,99.18,50,99.12,50.21,99.22Z"/><path class="cls-2" d="M50.21,99.22l-.31.17c-.26-.88-1.32-1.49-.86-2.61Z"/><path class="cls-44" d="M86.65,92.57,97.9,86.44l.19.35a1,1,0,0,1-.33.56c-1.47.93-3,1.68-4.54,2.55-.6.35-1.33.55-1.59,1.31C85.77,94.05,80.21,97.52,74,99.54c-1.24.07-2,1.24-3.26,1.34l-2.58,1c.16-1.32,1.33-1.3,2.21-1.67h0c1.51-.14,2.49-1.49,4-1.71h0c1.26,0,2-1.25,3.27-1.34h0c2.37-.72,4.31-2.27,6.52-3.31A9.51,9.51,0,0,1,86.65,92.57Z"/><path class="cls-45" d="M97.75,87l.34-.19a3.23,3.23,0,0,0,1.9-.6c-.71,1.28-2.18,1.45-3.23,2.21C96.34,87.41,97.68,87.64,97.75,87Z"/><path class="cls-46" d="M102.88,84.17l2.65-1.45c-.88.78-1.66,1.74-3,1.64Z"/><path class="cls-45" d="M102,83.31c.4-1,1.41-1.13,2.15-1.66C103.86,82.74,102.71,82.74,102,83.31Z"/><path class="cls-45" d="M105.25,82c-.28.93-1.24,1-1.87,1.46C103.64,82.5,104.62,82.47,105.25,82Z"/><path class="cls-45" d="M107.1,80.52c-.16.84-1,.88-1.52,1.28C105.75,81,106.57,80.92,107.1,80.52Z"/><path class="cls-45" d="M98.2,86.26c.27-.73,1-.92,1.57-1.27C99.58,85.83,98.76,85.88,98.2,86.26Z"/><path class="cls-47" d="M97.75,87c0,.71-1,.71-1,1.42l-5.13,2.81c-.34-.9.39-1.09.92-1.39C94.28,88.86,96,87.92,97.75,87Z"/><path class="cls-48" d="M70.34,100.17c-.7.6-1.85.62-2.21,1.67l-.87,0-1.07-.32A12.71,12.71,0,0,1,70.34,100.17Z"/><path class="cls-48" d="M70.71,100.88c1.1-.41,1.93-1.5,3.26-1.34C72.87,100,72,101,70.71,100.88Z"/><path class="cls-49" d="M77.57,88.25c-.33.22.08,1.14-.69.88-.62-.22-.86-.8-.25-1.81-2,1.55-4.62,1.52-5.21,4.12a.6.6,0,0,1-.83.3c-.54-.24-.25-.59-.1-.95a9.65,9.65,0,0,0,.33-1.08A183.7,183.7,0,0,0,92.36,78.78c.17.25,1.49.33.2.78-4.27,1.51-8,4.14-12,6.15C79.78,86.77,78.46,87.25,77.57,88.25Z"/><path class="cls-50" d="M82.62,85.53a8.37,8.37,0,0,1,4.27-2.42A8.63,8.63,0,0,1,82.62,85.53Z"/><path class="cls-48" d="M86.65,92.57c-2.5,1.38-5,2.76-7.5,4.13-.49.27-1,.72-1.61.42l7.5-4C85.54,92.82,86,92.41,86.65,92.57Z"/><path class="cls-50" d="M89.61,82a11.38,11.38,0,0,1,4.27-2.38C92.81,81.24,91.39,81.47,89.61,82Z"/><path class="cls-51" d="M77.57,88.25c.09-2,2.12-1.58,3-2.54L80,86.94a3.17,3.17,0,0,1-2,1.12Z"/><path class="cls-48" d="M74.29,98.46c-1.34.52-2.34,1.83-4,1.71C71.68,99.68,72.73,98.47,74.29,98.46Z"/><path class="cls-48" d="M77.55,97.12c-1.09.43-1.92,1.53-3.27,1.34C75.36,98,76.27,97.09,77.55,97.12Z"/><path class="cls-52" d="M53.76,102.33a2.5,2.5,0,0,1,.38.29c.21.22.17.5-.12.56a1,1,0,0,1-.66-.23C53.19,102.82,53.27,102.62,53.76,102.33Z"/><path class="cls-50" d="M90.07,82c-.45.8-1.24.89-2,1.08Z"/><path class="cls-43" d="M64,102.31c-.87.34-1.51,1.28-2.61,1C62.23,102.92,62.94,102.16,64,102.31Z"/><path class="cls-53" d="M77.91,88.06l2-1.12A1.77,1.77,0,0,1,77.91,88.06Z"/><path class="cls-54" d="M60.48,102.49c-.2.23-.27.39-.4.46a.43.43,0,0,1-.36-.06c-.24-.19-.08-.36.11-.43A2.2,2.2,0,0,1,60.48,102.49Z"/><path class="cls-55" d="M84.69,33.67a.55.55,0,0,0,0,.36.35.35,0,0,1,0,.32,1.77,1.77,0,0,1-.35.29,1,1,0,0,1-.29.1,3.12,3.12,0,0,0-.66,0l-.17,0c-.26-.1-.41-.13-.46-.1a.26.26,0,0,1-.17,0,1.19,1.19,0,0,0-.61.1,3.16,3.16,0,0,1-.27.2.86.86,0,0,0-.52,0,.89.89,0,0,1-.51,0,.68.68,0,0,1-.53.3.34.34,0,0,1-.08.34c-.08.06-.1.19-.07.39-.16.46-.28.8-.34,1a4.65,4.65,0,0,0-.15.76,1.24,1.24,0,0,0,.05.31,1.31,1.31,0,0,1,0,.27,2,2,0,0,0,0,1,.35.35,0,0,0-.12.24,1.53,1.53,0,0,0,0,.3,2.73,2.73,0,0,0,0,.7,1.42,1.42,0,0,1,0,.66,4.53,4.53,0,0,1-.07.54.84.84,0,0,0,0,.34c-.22.29-.32.46-.29.49a.48.48,0,0,1,.1.15v.63a.33.33,0,0,1-.1.25,4.8,4.8,0,0,0,0,.95c0,.18.07.36.1.56a.62.62,0,0,0-.1.37,4.75,4.75,0,0,1,0,.56,1.31,1.31,0,0,0,0,.53.88.88,0,0,1-.07.3,1.2,1.2,0,0,0-.07.44c.06.29.1.47.12.53a1.36,1.36,0,0,1,0,.2,1.22,1.22,0,0,0,0,.41.88.88,0,0,1,0,.17c0,.1,0,.22,0,.37a.94.94,0,0,0,.07.46c-.06.36-.1.69-.12,1a4.54,4.54,0,0,0,0,.83c0,.13.06.23.08.29A.59.59,0,0,1,79,52c-.13.32-.21.52-.24.58a.49.49,0,0,0,0,.2.7.7,0,0,1,.12.41.22.22,0,0,0,.07.22.39.39,0,0,0-.12.42,3.19,3.19,0,0,1,.12.51,2.21,2.21,0,0,0,0,.56,3.1,3.1,0,0,1,0,.42,1.91,1.91,0,0,0,0,.32,1.72,1.72,0,0,1,0,.31c0,.17.08.32.13.47A1,1,0,0,1,79,57a2.73,2.73,0,0,0,.29.54,1.48,1.48,0,0,0,0,.63.21.21,0,0,1-.12.29,1.07,1.07,0,0,1,.17.42,2.44,2.44,0,0,1,.07.56,1,1,0,0,0,.1.49,1.75,1.75,0,0,1,.14.44,4.63,4.63,0,0,1,.08.93,1.45,1.45,0,0,0,.07.58,5.31,5.31,0,0,0,.17,1.1,4.92,4.92,0,0,1,.17.85.86.86,0,0,0,0,.44.37.37,0,0,1,0,.2,2.51,2.51,0,0,0,0,.68.62.62,0,0,1,.05.25,1.28,1.28,0,0,0,0,.41,1.12,1.12,0,0,0,.1.22c0,.3,0,.45,0,.47s0,.05,0,.12a3.18,3.18,0,0,1,0,.75,2.43,2.43,0,0,0,0,.62,2.36,2.36,0,0,0,.35.61.64.64,0,0,1,.19.26,8.12,8.12,0,0,0,.93.17l1,.18.64.07a.87.87,0,0,0,.58-.17,1.84,1.84,0,0,0,.22.17.58.58,0,0,1,.22.22,2,2,0,0,1,.64.17l.49.27a1,1,0,0,1-.1.83,2.21,2.21,0,0,1-.93.14,6.35,6.35,0,0,1-.9.37.61.61,0,0,1-.51-.07,2.46,2.46,0,0,1-.44.12.39.39,0,0,0-.3.22.43.43,0,0,0-.34-.05,1.16,1.16,0,0,1-.34.05,6.15,6.15,0,0,0-.66-.15.57.57,0,0,0-.51.15,2,2,0,0,0-.47-.12.33.33,0,0,0-.31.12,1.5,1.5,0,0,1-.64-.15.75.75,0,0,0-.39-.09c-.26,0-.41,0-.44,0a.16.16,0,0,0-.14,0,1.42,1.42,0,0,0-.42,0H77.6l-.73,0a1.62,1.62,0,0,1-.73-.12,1.56,1.56,0,0,1-.44,0c-.1,0-.16,0-.19,0a2.55,2.55,0,0,0-.74-.1,1,1,0,0,1-.63-.19.83.83,0,0,1-.66.09,1.22,1.22,0,0,0-.46-.09,2.32,2.32,0,0,1-.69,0,.34.34,0,0,0-.19,0l-.69.14a6.89,6.89,0,0,1-.75.1.48.48,0,0,0-.22,0l-.47.22a.74.74,0,0,1-.56,0,4.19,4.19,0,0,0-1.15.26,2.23,2.23,0,0,1-.75.22,1.82,1.82,0,0,1-.74-.09,3.92,3.92,0,0,0-.39-.25c0-.16,0-.28-.07-.34a.84.84,0,0,1,0-.34.49.49,0,0,1,.3-.25.32.32,0,0,0,.24-.29.47.47,0,0,0,.47,0,.59.59,0,0,1,.46-.1l.41,0a2.32,2.32,0,0,0,.42-.1l.59-.05a2.29,2.29,0,0,0,.36.05.51.51,0,0,0,.22-.05,1.91,1.91,0,0,0,.49-.17.7.7,0,0,1,.49-.07,1.75,1.75,0,0,0,.39-.22.51.51,0,0,1,.44-.08.34.34,0,0,1,.24-.17.94.94,0,0,0,.3-.12l.39-.34a.2.2,0,0,1,.14-.05,2.47,2.47,0,0,0,.34-.54,3.84,3.84,0,0,1,.35-.54.94.94,0,0,1,0-.7.56.56,0,0,0-.12-.61,2,2,0,0,0,.1-.57V65a1.19,1.19,0,0,0-.08-.44,1.23,1.23,0,0,1-.07-.44,4.44,4.44,0,0,1-.07-.49,4.91,4.91,0,0,1,0-.59.51.51,0,0,0,0-.34.89.89,0,0,1-.07-.29c0-.36,0-.55,0-.56s0-.06,0-.13a3,3,0,0,1-.13-1.14,1.14,1.14,0,0,0,0-.61,1.06,1.06,0,0,1-.07-.44.81.81,0,0,0,0-.2.5.5,0,0,0-.07-.27q-.07-.12.12-.27a2.24,2.24,0,0,0-.15-.63,2.07,2.07,0,0,0-.07-.54s0,0,0,0l0-.78c-.07-.36-.09-.55,0-.58a.23.23,0,0,0,0-.15l-.15-.63a1.83,1.83,0,0,0,0-.4.83.83,0,0,0-.15-.43.52.52,0,0,0,0-.4,1.29,1.29,0,0,1,0-.48.74.74,0,0,0,.05-.44.92.92,0,0,1-.05-.25,2.39,2.39,0,0,1-.1-.58,3.5,3.5,0,0,1,.08-.74,2.21,2.21,0,0,0,0-.68,7.26,7.26,0,0,1,0-.83v-.93c0-.09-.06-.19-.1-.29a1,1,0,0,1,0-.29,1.13,1.13,0,0,1,0-.34.79.79,0,0,0,0-.3,2.83,2.83,0,0,0,0-.29,1.29,1.29,0,0,1,0-.24c0-.36.06-.61.08-.74a1,1,0,0,1,.12-.39,4.76,4.76,0,0,0,0-.66.32.32,0,0,1,.08-.27,2.6,2.6,0,0,1-.1-.68,2.41,2.41,0,0,1,.05-.59.93.93,0,0,0,0-.29,2.09,2.09,0,0,1,0-.83,2,2,0,0,0,0-.61c0-.11-.07-.22-.1-.32a1.16,1.16,0,0,0,.15-.53.89.89,0,0,1,.14-.49.9.9,0,0,1-.07-.44,1.77,1.77,0,0,0,0-.54.63.63,0,0,1,0-.34.37.37,0,0,0,0-.2,3.35,3.35,0,0,0,0-.95,3.08,3.08,0,0,1,0-1c-.16-.06-.26,0-.29.22a2.18,2.18,0,0,1-.15.56c-.09.39-.16.58-.19.56s-.05,0-.05.08a.35.35,0,0,1,0,.32c-.06.08,0,.18,0,.31a3.79,3.79,0,0,0-.44,1.22,2.64,2.64,0,0,0-.2,1.08.39.39,0,0,0-.14.34.71.71,0,0,1-.15.44c-.06,0-.1.14-.12.32a1.55,1.55,0,0,1-.12.46.89.89,0,0,0-.25.68,1,1,0,0,1-.24.69.65.65,0,0,1,0,.44c-.06.13-.13.27-.19.44a3.37,3.37,0,0,1-.15.73c-.07.23-.12.37-.15.44a1.74,1.74,0,0,1-.1.19,3.89,3.89,0,0,0-.21.83.42.42,0,0,1-.22.35,7.82,7.82,0,0,1-.32.75,1.29,1.29,0,0,0-.12.61.81.81,0,0,0-.35.59,1.49,1.49,0,0,1-.24.68.24.24,0,0,1,0,.27,1.69,1.69,0,0,0-.12.27c-.06.26-.11.4-.14.41a.24.24,0,0,0-.1.13l-.15.58a3.17,3.17,0,0,1-.17.39,1.5,1.5,0,0,0-.12.39,3.72,3.72,0,0,0-.1.37,2.08,2.08,0,0,0,0,.41.32.32,0,0,0-.19.4.33.33,0,0,1-.2.39,1.21,1.21,0,0,1-.44.87.52.52,0,0,1,0,.35l-.17.29a.78.78,0,0,0-.13.34.27.27,0,0,1-.17.25,1.75,1.75,0,0,0-.29.87,1.27,1.27,0,0,0-.39.93,2.52,2.52,0,0,1-.24.56,3.16,3.16,0,0,0-.2.27,2.15,2.15,0,0,1-.29.91,2.33,2.33,0,0,0-.34.65,3.45,3.45,0,0,0-.2.79l-.24.53a3.15,3.15,0,0,0-.15.42,3.09,3.09,0,0,1-.15.41.85.85,0,0,1-.14.47c-.07,0-.07.1,0,.17-.1.36-.23.53-.39.53a1,1,0,0,1,0,.59c-.07.2-.13.41-.2.64s-.07.4-.12.44a.15.15,0,0,0-.07.14,1.17,1.17,0,0,0-.1.47,1.16,1.16,0,0,1-.1.46c-.13.36-.23.6-.29.73a1.93,1.93,0,0,0-.2.61.83.83,0,0,1-.05.32,2.11,2.11,0,0,0-.19,1,1.38,1.38,0,0,1,0,.61,1.79,1.79,0,0,1-.22.51,2.07,2.07,0,0,0-.22.42c-.16-.07-.27-.07-.32,0l-.22.17a.65.65,0,0,1-.53-.32,1.61,1.61,0,0,0-.39-.47c0-.26-.06-.45-.08-.58a1.72,1.72,0,0,0-.12-.44l-.24-.59a6.47,6.47,0,0,1-.4-.66c0-.08-.08-.18-.14-.31a4,4,0,0,0-.1-.69c0-.09-.06-.21-.1-.34s-.12-.32-.17-.49a.67.67,0,0,0-.32-.39,1.41,1.41,0,0,0-.14-.41l-.2-.37c-.06-.13-.12-.27-.17-.41a.91.91,0,0,0-.22-.37,1.92,1.92,0,0,0-.17-.71,2.84,2.84,0,0,1-.22-.56.52.52,0,0,1-.12-.29.42.42,0,0,0-.17-.3,2.78,2.78,0,0,1,0-.41s0-.09-.07-.12a.82.82,0,0,1-.24-.42,1,1,0,0,0-.25-.41A1.27,1.27,0,0,0,56,61a1.29,1.29,0,0,1-.12-.61,1.07,1.07,0,0,1-.27-.44,1.94,1.94,0,0,0-.22-.49c-.07-.1-.12-.19-.17-.27a1.06,1.06,0,0,1-.12-.37,2.92,2.92,0,0,1-.25-.92,1.8,1.8,0,0,1-.49-1,1.42,1.42,0,0,0-.53-.93,1.61,1.61,0,0,0-.13-.51.72.72,0,0,0-.21-.22,2,2,0,0,0-.18-.59.37.37,0,0,1-.07-.19,1,1,0,0,1,0-.29.49.49,0,0,0,0-.25l-.29-.63a1.13,1.13,0,0,1,0-.32,1.14,1.14,0,0,0-.1-.42,1.37,1.37,0,0,0-.14-.63.65.65,0,0,1-.15-.2,1.56,1.56,0,0,0-.17-.53.14.14,0,0,1,0-.2,4.29,4.29,0,0,1-.44-.8,9.4,9.4,0,0,1-.34-1c-.09-.34-.2-.67-.31-1s-.24-.59-.37-.85a1.51,1.51,0,0,1-.1-.49.57.57,0,0,0-.1-.34q0-.24-.09-.42a.41.41,0,0,1,0-.31,1.56,1.56,0,0,1-.39-.93c-.23-.56-.4-.95-.52-1.2s-.23-.49-.36-.75a.82.82,0,0,1-.13-.27.35.35,0,0,0-.12-.22c-.09-.3-.17-.55-.22-.76a6.09,6.09,0,0,0-.17-.61,4,4,0,0,0-.17-.39,1.5,1.5,0,0,1-.12-.34,2.82,2.82,0,0,0-.37-.71,3.63,3.63,0,0,1-.27-.42,4.71,4.71,0,0,0-.34-.63,1.71,1.71,0,0,1-.22-.32,1.47,1.47,0,0,0-.27-.36.26.26,0,0,0,0,.29c0,.13.09.23.12.29a.72.72,0,0,0,0,.44.92.92,0,0,1,.1.44,1.8,1.8,0,0,1-.07.39,1.67,1.67,0,0,0-.08.49,1,1,0,0,0,.08.37A.78.78,0,0,1,47,41c0,.46-.06.78-.07,1a6.66,6.66,0,0,0,0,.68c0,.23.08.46.12.71a1.87,1.87,0,0,1,0,.66c-.1.36-.16.55-.17.58a.25.25,0,0,1-.12.1c.19.26.21.46,0,.59,0,.55.08,1,.13,1.27a3.58,3.58,0,0,1,0,.93,9.09,9.09,0,0,0,.1,1,2.72,2.72,0,0,1,.05.49,1.09,1.09,0,0,1-.08.39.58.58,0,0,0,0,.34,1.53,1.53,0,0,0,.07.59.6.6,0,0,1,.08.24,1.24,1.24,0,0,1,0,.42.76.76,0,0,0,0,.36,1.61,1.61,0,0,1,0,.59.11.11,0,0,0,0,.1.25.25,0,0,0,0,.24,1,1,0,0,1,0,.29,3.6,3.6,0,0,1,0,.86.38.38,0,0,0,0,.32c0,.45,0,.73,0,.83a1.34,1.34,0,0,1,0,.44,2.55,2.55,0,0,0,0,.39c0,.35,0,.55,0,.58-.06.23-.08.37,0,.42a.31.31,0,0,1,0,.17.71.71,0,0,1,0,.41,1.76,1.76,0,0,0,0,.42,4.68,4.68,0,0,0,0,.66.81.81,0,0,1-.14.61,1.32,1.32,0,0,1,0,.88,1.08,1.08,0,0,1,0,.83,1.62,1.62,0,0,1,0,.63,1.42,1.42,0,0,0-.13.78.61.61,0,0,1,0,.39q-.15.34-.12.42a1,1,0,0,0,.07.17A1.12,1.12,0,0,1,47,63a2.58,2.58,0,0,0,0,.32,2,2,0,0,1,0,.53,3.28,3.28,0,0,0,0,.34c-.1.36-.12.55-.07.57s0,0,0,.12a.51.51,0,0,1-.12.22s-.06.15,0,.31c.13.36.23.66.3.88a.73.73,0,0,1-.05.59l.19.2a.57.57,0,0,1,.15.34,4.86,4.86,0,0,1,.37.44s0,.08-.08.14a1.36,1.36,0,0,1,.37.2,1.8,1.8,0,0,0,.32.19c.16.26.31.41.44.44s.19.13.19.3l.51.36a.4.4,0,0,1,.18.22,3.75,3.75,0,0,1,.43.12.56.56,0,0,1,.3.32.91.91,0,0,1,.49,0l.48.1a1.63,1.63,0,0,0,.54,0,1.33,1.33,0,0,1,.49,0,1.28,1.28,0,0,1,.56.2.86.86,0,0,1,.32.34,4,4,0,0,0-.07.46,1.21,1.21,0,0,1-.13.42,2.83,2.83,0,0,1-.83.14,1.3,1.3,0,0,1-.44-.17l-.34-.22a2.37,2.37,0,0,1-.58.17,1,1,0,0,1-.39,0,2,2,0,0,0-.79-.17,1.55,1.55,0,0,1-.48,0,1.21,1.21,0,0,0-.64-.09.55.55,0,0,1-.39,0,1,1,0,0,0-.83,0,.73.73,0,0,1-.78,0,1.27,1.27,0,0,1-.44,0l-.49-.07-.22.12a1.11,1.11,0,0,1-.27.12,1,1,0,0,1-.61,0,3.29,3.29,0,0,0-.66-.08c-.39,0-.58.08-.58.25a3.41,3.41,0,0,1-.93,0,2.55,2.55,0,0,0-.78,0,1.71,1.71,0,0,1-.76,0,.2.2,0,0,0-.22,0,1.13,1.13,0,0,0-.17-.47.83.83,0,0,1-.07-.56,2.13,2.13,0,0,1,.73-.44,2.32,2.32,0,0,0,1.12,0c.2,0,.38-.06.54-.07a.72.72,0,0,1,.44.07,4.14,4.14,0,0,1,.44-.29,1.08,1.08,0,0,1,.24-.1,1.82,1.82,0,0,0,.25-.2.6.6,0,0,1,.29-.14,2.94,2.94,0,0,0,.24-.34,1.3,1.3,0,0,1,.15-.2q.34-.54.39-.63a1.48,1.48,0,0,1,.15-.25,8.73,8.73,0,0,0,0-1.78,3.81,3.81,0,0,1,0-1.39,1,1,0,0,0-.15-.49c-.06-.07-.05-.13,0-.2-.07-.42-.06-.68,0-.78a1,1,0,0,0,.22-.39V62.6a.47.47,0,0,1,.1-.32l-.05-.58a1.83,1.83,0,0,1,.05-.4,1.88,1.88,0,0,0,0-.43,1.25,1.25,0,0,0,0-.32,2.42,2.42,0,0,0-.1-.32,1.12,1.12,0,0,1,0-.24c0-.1,0-.2,0-.3.1-.26.13-.41.1-.46a.28.28,0,0,1,0-.12,1.27,1.27,0,0,1,0-.39,1.23,1.23,0,0,0,.05-.35.64.64,0,0,0,0-.31.25.25,0,0,1,.17-.27c-.13-.39-.17-.59-.12-.61s.08,0,.08-.07c-.07-.3-.09-.45-.05-.47s.05,0,.05-.07a.62.62,0,0,0-.1-.34.32.32,0,0,1,0-.35,4,4,0,0,1-.1-.83,1.14,1.14,0,0,1,.1-.53,4.49,4.49,0,0,1-.15-1.71v-.32a.48.48,0,0,1,.1-.27,2.51,2.51,0,0,1-.1-.63,2.83,2.83,0,0,1,.07-.54s0,0,0-.1a1,1,0,0,1-.05-.51.63.63,0,0,0,.05-.22l-.1-.78c0-.13,0-.25,0-.37a2,2,0,0,1,0-.36,1.39,1.39,0,0,1,0-.32,2.13,2.13,0,0,0,0-.27c0-.32,0-.64-.05-.95s-.06-.68-.1-1.1a3.36,3.36,0,0,0,0-.56,1.1,1.1,0,0,1,0-.51,2.11,2.11,0,0,1,.07-.54,1,1,0,0,0,0-.59,1.41,1.41,0,0,1,.2-.78.62.62,0,0,1-.1-.46,2.59,2.59,0,0,0,.05-.51,3,3,0,0,1-.05-.52v-.51a3.82,3.82,0,0,0,0-.68,5.34,5.34,0,0,1,0-.69,1.05,1.05,0,0,1,0-.44.16.16,0,0,0,0-.14,1,1,0,0,0,0-.35,1.11,1.11,0,0,1,0-.34,1,1,0,0,0,0-.58,1.35,1.35,0,0,1-.08-.64,1.14,1.14,0,0,0-.12-.68,1,1,0,0,1-.56,0,1.82,1.82,0,0,0-.66,0,4.23,4.23,0,0,1-.63.05.92.92,0,0,1-.59-.2,1.64,1.64,0,0,1-.76.08,1.15,1.15,0,0,0-.46-.08,1.11,1.11,0,0,0-.34.05.43.43,0,0,1-.34-.05c-.27-.32-.38-.52-.35-.58a.18.18,0,0,0,0-.2.92.92,0,0,1,.37-.51,1.44,1.44,0,0,1,.66-.12.61.61,0,0,0,.32.07.62.62,0,0,1,.22,0,3,3,0,0,0,1.05.26.67.67,0,0,1,.46.13,2.22,2.22,0,0,1,1-.13c.27.05.44,0,.54-.12a18.65,18.65,0,0,0,1.86.25,4.46,4.46,0,0,0,1.36-.1l.74,0a3.91,3.91,0,0,0,.49,0,1.84,1.84,0,0,1,.7,0,.68.68,0,0,0,.22,0,1.12,1.12,0,0,0,.32,0h.27c.29,0,.57,0,.83,0a4.12,4.12,0,0,0,.73-.12.86.86,0,0,0,.47.05.68.68,0,0,1,.46,0,.91.91,0,0,1,.83.78c0,.19,0,.31.1.36s.06.14,0,.27l.34.49a.83.83,0,0,1,0,.54.52.52,0,0,1,.27.31.56.56,0,0,0,.22.32.26.26,0,0,0,0,.29.78.78,0,0,1,.08.35,4.69,4.69,0,0,0,.39.78,1.54,1.54,0,0,1,.09.24.87.87,0,0,0,.15.25.49.49,0,0,0,.05.26.56.56,0,0,1,0,.27.87.87,0,0,0,.24.32.23.23,0,0,1,0,.32,3,3,0,0,1,.27.66.4.4,0,0,0,.17.27c0,.26.07.39.12.41a.53.53,0,0,1,.17.12.32.32,0,0,1,.08.27.46.46,0,0,0,0,.27q.3.63.39.78a1.38,1.38,0,0,1,.29.83.28.28,0,0,0,.2.34,2.82,2.82,0,0,1,.2.74,4.73,4.73,0,0,1,.34.73c0,.13.06.27.09.44.2.29.28.44.25.46s0,0,0,.07c.1.4.16.62.19.69a1.74,1.74,0,0,1,.1.19c.07.23.13.47.2.71a1.26,1.26,0,0,0,.34.61,7.78,7.78,0,0,1,.19.83.82.82,0,0,0,.2.44,1,1,0,0,0,.2.76,5.74,5.74,0,0,1,.43.66,1,1,0,0,1,.15.58.39.39,0,0,1,.17.3.29.29,0,0,0,.27.24c.16.52.29.9.37,1.12a3,3,0,0,0,.27.59.8.8,0,0,0,.19.41l.24.18a1.23,1.23,0,0,0,.2.53,2,2,0,0,1,.24.44.87.87,0,0,0,.15.25l.29.58.1.2c.29.13.45.15.47.07a1.8,1.8,0,0,1,.07-.27l.12-.27a.59.59,0,0,1,.27-.27.58.58,0,0,1,.29-.48,2.92,2.92,0,0,1,.22-.74c.12-.26.2-.47.27-.63a1.08,1.08,0,0,0,.12-.46.25.25,0,0,1,0-.18.62.62,0,0,0,.14-.31.18.18,0,0,1,.15-.17,1,1,0,0,1,.07-.59,1.87,1.87,0,0,0,.17-.59A10.6,10.6,0,0,1,66.5,52a4,4,0,0,0,.36-1.14c.1-.3.17-.49.2-.59a2.47,2.47,0,0,1,.1-.29,3.66,3.66,0,0,1,.24-.59,3.32,3.32,0,0,0,.24-.59.71.71,0,0,0,.13-.31.33.33,0,0,1,.17-.27,1.33,1.33,0,0,1,.29-.83c.06-.2.12-.39.17-.59a2.75,2.75,0,0,1,.22-.58c0-.36.08-.56.15-.61a.22.22,0,0,0,.09-.17,2,2,0,0,0,.15-.69,1.21,1.21,0,0,0,.25-.88,1.13,1.13,0,0,0,.29-.83,3.42,3.42,0,0,1,.14-.49,1.74,1.74,0,0,0,.1-.19,1.9,1.9,0,0,1,.1-.59,8.81,8.81,0,0,1,.32-.9l.22-.51a1.15,1.15,0,0,0,.07-.52,1.41,1.41,0,0,1,.07-.56,3.47,3.47,0,0,1,.17-.61.16.16,0,0,0,0-.22.24.24,0,0,0,.15-.29.37.37,0,0,1,0-.34.63.63,0,0,0,.17-.32.42.42,0,0,1,.12-.27,7.09,7.09,0,0,0,.39-1.15,2.13,2.13,0,0,1,.34-.8,1.3,1.3,0,0,1,0-.59c.07-.36.13-.56.2-.61a.49.49,0,0,0,.14-.27,2,2,0,0,0,.59-.17,1.83,1.83,0,0,1,.53-.17,1.18,1.18,0,0,0,.22.17,1,1,0,0,1,.22.17,1.51,1.51,0,0,1,.81,0,1,1,0,0,0,.85-.09,2.16,2.16,0,0,0,.76.07l.9,0a1.41,1.41,0,0,1,.44,0,.33.33,0,0,0,.25-.07.3.3,0,0,0,.27.07.31.31,0,0,1,.27.07l.68-.14c.29.09.46.12.51.07a.51.51,0,0,1,.22-.12c.42,0,.75-.05,1-.05a11.37,11.37,0,0,0,1.36-.07q.5-.07.93-.18a1.22,1.22,0,0,1,.52.13.21.21,0,0,0,.17.07.84.84,0,0,1,.51.1A.39.39,0,0,0,84.69,33.67Z"/></g></g></svg>